<svg xmlns="http://www.w3.org/2000/svg" viewBox="0 0 30 30" shape-rendering="crispEdges"><rect width="30" height="30" fill="#070b14"/><g fill="#c3cbd6"><rect x="6" y="2" width="6" height="1"/><rect x="17" y="2" width="1" height="1"/><rect x="20" y="2" width="1" height="1"/><rect x="24" y="2" width="1" height="1"/><rect x="5" y="3" width="2" height="1"/><rect x="11" y="3" width="1" height="1"/><rect x="16" y="3" width="10" height="1"/><rect x="4" y="4" width="2" height="1"/><rect x="16" y="4" width="2" height="1"/><rect x="20" y="4" width="2" height="1"/><rect x="24" y="4" width="2" height="1"/><rect x="4" y="5" width="2" height="1"/><rect x="16" y="5" width="2" height="1"/><rect x="20" y="5" width="2" height="1"/><rect x="24" y="5" width="2" height="1"/><rect x="4" y="6" width="3" height="1"/><rect x="16" y="6" width="2" height="1"/><rect x="20" y="6" width="2" height="1"/><rect x="24" y="6" width="2" height="1"/><rect x="5" y="7" width="4" height="1"/><rect x="16" y="7" width="2" height="1"/><rect x="20" y="7" width="2" height="1"/><rect x="24" y="7" width="2" height="1"/><rect x="7" y="8" width="4" height="1"/><rect x="16" y="8" width="2" height="1"/><rect x="20" y="8" width="2" height="1"/><rect x="24" y="8" width="2" height="1"/><rect x="9" y="9" width="3" height="1"/><rect x="16" y="9" width="2" height="1"/><rect x="20" y="9" width="2" height="1"/><rect x="24" y="9" width="2" height="1"/><rect x="10" y="10" width="2" height="1"/><rect x="16" y="10" width="2" height="1"/><rect x="20" y="10" width="2" height="1"/><rect x="24" y="10" width="2" height="1"/><rect x="10" y="11" width="2" height="1"/><rect x="16" y="11" width="2" height="1"/><rect x="20" y="11" width="2" height="1"/><rect x="24" y="11" width="2" height="1"/><rect x="4" y="12" width="1" height="1"/><rect x="9" y="12" width="2" height="1"/><rect x="16" y="12" width="1" height="1"/><rect x="20" y="12" width="1" height="1"/><rect x="24" y="12" width="1" height="1"/><rect x="4" y="13" width="6" height="1"/><rect x="5" y="16" width="7" height="1"/><rect x="16" y="16" width="10" height="1"/><rect x="4" y="17" width="2" height="1"/><rect x="11" y="17" width="1" height="1"/><rect x="16" y="17" width="1" height="1"/><rect x="19" y="17" width="4" height="1"/><rect x="25" y="17" width="1" height="1"/><rect x="4" y="18" width="2" height="1"/><rect x="19" y="18" width="2" height="1"/><rect x="4" y="19" width="2" height="1"/><rect x="19" y="19" width="2" height="1"/><rect x="4" y="20" width="5" height="1"/><rect x="19" y="20" width="2" height="1"/><rect x="4" y="21" width="2" height="1"/><rect x="8" y="21" width="2" height="1"/><rect x="19" y="21" width="2" height="1"/><rect x="4" y="22" width="2" height="1"/><rect x="19" y="22" width="2" height="1"/><rect x="4" y="23" width="2" height="1"/><rect x="11" y="23" width="1" height="1"/><rect x="19" y="23" width="2" height="1"/><rect x="24" y="23" width="1" height="1"/><rect x="5" y="24" width="7" height="1"/><rect x="19" y="24" width="6" height="1"/><rect x="20" y="25" width="3" height="1"/></g></svg>